# xmcd
#
# Track frame offsets:
#	150
#	14572
#	26965
#	46087
#	55417
#	70295
#	83080
#	98890
#	128970
#	143025
#
# Disc length: 2100 seconds
#
# Revision: 1
# Processed by: cddbd v1.4PL0 Copyright (c) Steve Scherf et al.
# Submitted via: CDmax 1.8
#
DISCID=8a08320a
DTITLE=Queen Bee and the Blue Hornet Band - Harder Than a Freight Train
DYEAR=1990
DGENRE=Blues
TTITLE0=Runnin' Shoes
TTITLE1=Like a Freight Train
TTITLE2=Every Night About This Time
TTITLE3=You're Evil
TTITLE4=Let Me Tell You What Love Is
TTITLE5=Fortune Teller
TTITLE6=I Don't Believe
TTITLE7=Every Night and Every Day
TTITLE8=What Have I Done Wrong?
TTITLE9=Skeller Stomp
EXTD=
EXTT0=
EXTT1=
EXTT2=
EXTT3=
EXTT4=
EXTT5=
EXTT6=
EXTT7=
EXTT8=
EXTT9=
PLAYORDER=
